ffmpeg started on 2025-05-28 at 10:30:45
Report written to "D:\Convert\FFMetrics\reports\ssim_report-6.txt"
Log level: 32
Command line:
ffmpeg -hide_banner -nostdin -i "G:\\\xc0\xed\xe8\xec\xe5\\\xce\xed\xe3\xee\xe8\xed\xe3\xe8\\!_36_\xce\xf1\xe5\xed\xfc_2024\\JamClub\\MF \xcf\xf0\xe8\xe7\xf0\xe0\xea\\\xd2\xc2-1\\[JAMCLUB] MF Ghost - 07 (1080p)_HEVC.mkv" -i "G:\\\xc0\xed\xe8\xec\xe5\\\xce\xed\xe3\xee\xe8\xed\xe3\xe8\\!_36_\xce\xf1\xe5\xed\xfc_2024\\JamClub\\MF \xcf\xf0\xe8\xe7\xf0\xe0\xea\\\xd2\xc2-1\\[JAMCLUB] MF Ghost - 07 (1080p).mp4" -lavfi "[0:v]settb=AVTB,setpts=PTS-STARTPTS,format=pix_fmts=yuv420p10,fps=24000/1001,scale=1920:1080:flags=bicubic[main];[1:v]settb=AVTB,setpts=PTS-STARTPTS,format=pix_fmts=yuv420p,fps=24000/1001,scale=1920:1080:flags=bicubic[ref];[main][ref]ssim=eof_action=endall:stats_file='D\\:/Convert/FFMetrics/logs/ssim_logfile-6.txt'" -f null -
Input #0, matroska,webm, from 'G:\Аниме\Онгоинги\!_36_Осень_2024\JamClub\MF Призрак\ТВ-1\[JAMCLUB] MF Ghost - 07 (1080p)_HEVC.mkv':
  Metadata:
    COMPATIBLE_BRANDS: isomiso2avc1mp41
    MAJOR_BRAND     : isom
    MINOR_VERSION   : 512
    ENCODER         : Lavf61.7.100
  Duration: 00:24:02.35, start: -0.021000, bitrate: 2440 kb/s
  Stream #0:0: Video: hevc (Main 10), yuv420p10le(tv, bt709, progressive), 1920x1080 [SAR 1:1 DAR 16:9], 23.98 fps, 23.98 tbr, 1k tbn (default)
      Metadata:
        HANDLER_NAME    : VideoHandler
        VENDOR_ID       : [0][0][0][0]
        ENCODER         : Lavc61.19.100 libx265
        BPS             : 2240173
        DURATION        : 00:24:02.232708333
        NUMBER_OF_FRAMES: 34579
        NUMBER_OF_BYTES : 403856167
        _STATISTICS_WRITING_APP: mkvpropedit v66.0.0 ('Josie') 64-bit
        _STATISTICS_WRITING_DATE_UTC: 2025-05-27 09:15:11
        _STATISTICS_TAGS: BPS DURATION NUMBER_OF_FRAMES NUMBER_OF_BYTES
  Stream #0:1: Audio: aac (LC), 48000 Hz, stereo, fltp (default)
      Metadata:
        HANDLER_NAME    : SoundHandler
        VENDOR_ID       : [0][0][0][0]
        ENCODER         : Lavc61.19.100 aac
        BPS             : 196683
        DURATION        : 00:24:02.325000000
        NUMBER_OF_FRAMES: 67610
        NUMBER_OF_BYTES : 35460208
        _STATISTICS_WRITING_APP: mkvpropedit v66.0.0 ('Josie') 64-bit
        _STATISTICS_WRITING_DATE_UTC: 2025-05-27 09:15:11
        _STATISTICS_TAGS: BPS DURATION NUMBER_OF_FRAMES NUMBER_OF_BYTES
Input #1, mov,mp4,m4a,3gp,3g2,mj2, from 'G:\Аниме\Онгоинги\!_36_Осень_2024\JamClub\MF Призрак\ТВ-1\[JAMCLUB] MF Ghost - 07 (1080p).mp4':
  Metadata:
    major_brand     : isom
    minor_version   : 512
    compatible_brands: isomiso2avc1mp41
    encoder         : Lavf60.10.100
  Duration: 00:24:02.33, start: 0.000000, bitrate: 5229 kb/s
  Stream #1:0[0x1](und): Video: h264 (High) (avc1 / 0x31637661), yuv420p(tv, bt709, progressive), 1920x1080 [SAR 1:1 DAR 16:9], 4968 kb/s, 23.98 fps, 23.98 tbr, 24k tbn (default)
      Metadata:
        handler_name    : VideoHandler
        vendor_id       : [0][0][0][0]
        encoder         : Lavc60.23.100 h264_nvenc
  Stream #1:1[0x2](und): Audio: aac (LC) (mp4a / 0x6134706D), 48000 Hz, stereo, fltp, 255 kb/s (default)
      Metadata:
        handler_name    : SoundHandler
        vendor_id       : [0][0][0][0]
Stream mapping:
  Stream #0:0 (hevc) -> settb:default
  Stream #1:0 (h264) -> settb:default
  ssim:default -> Stream #0:0 (wrapped_avframe)
  Stream #0:1 -> #0:1 (aac (native) -> pcm_s16le (native))
Output #0, null, to 'pipe:':
  Metadata:
    COMPATIBLE_BRANDS: isomiso2avc1mp41
    MAJOR_BRAND     : isom
    MINOR_VERSION   : 512
    encoder         : Lavf61.7.100
  Stream #0:0: Video: wrapped_avframe, yuv420p10le(tv, bt709, progressive), 1920x1080 [SAR 1:1 DAR 16:9], q=2-31, 200 kb/s, 23.98 fps, 23.98 tbn
      Metadata:
        encoder         : Lavc61.19.100 wrapped_avframe
  Stream #0:1: Audio: pcm_s16le, 48000 Hz, stereo, s16, 1536 kb/s (default)
      Metadata:
        HANDLER_NAME    : SoundHandler
        VENDOR_ID       : [0][0][0][0]
        _STATISTICS_TAGS: BPS DURATION NUMBER_OF_FRAMES NUMBER_OF_BYTES
        BPS             : 196683
        DURATION        : 00:24:02.325000000
        NUMBER_OF_FRAMES: 67610
        NUMBER_OF_BYTES : 35460208
        _STATISTICS_WRITING_APP: mkvpropedit v66.0.0 ('Josie') 64-bit
        _STATISTICS_WRITING_DATE_UTC: 2025-05-27 09:15:11
        encoder         : Lavc61.19.100 pcm_s16le
frame=  117 fps=0.0 q=-0.0 size=N/A time=00:00:04.87 bitrate=N/A speed=9.42x    frame=  274 fps=266 q=-0.0 size=N/A time=00:00:11.42 bitrate=N/A speed=11.1x    frame=  462 fps=300 q=-0.0 size=N/A time=00:00:19.26 bitrate=N/A speed=12.5x    frame=  691 fps=335 q=-0.0 size=N/A time=00:00:28.82 bitrate=N/A speed=  14x    frame=  891 fps=346 q=-0.0 size=N/A time=00:00:37.16 bitrate=N/A speed=14.4x    frame= 1116 fps=360 q=-0.0 size=N/A time=00:00:46.54 bitrate=N/A speed=  15x    frame= 1308 fps=363 q=-0.0 size=N/A time=00:00:54.55 bitrate=N/A speed=15.1x    frame= 1516 fps=367 q=-0.0 size=N/A time=00:01:03.22 bitrate=N/A speed=15.3x    frame= 1759 fps=379 q=-0.0 size=N/A time=00:01:13.36 bitrate=N/A speed=15.8x    frame= 1982 fps=384 q=-0.0 size=N/A time=00:01:22.66 bitrate=N/A speed=  16x    frame= 2239 fps=395 q=-0.0 size=N/A time=00:01:33.38 bitrate=N/A speed=16.5x    frame= 2479 fps=400 q=-0.0 size=N/A time=00:01:43.39 bitrate=N/A speed=16.7x    frame= 2747 fps=410 q=-0.0 size=N/A time=00:01:54.57 bitrate=N/A speed=17.1x    frame= 3019 fps=418 q=-0.0 size=N/A time=00:02:05.91 bitrate=N/A speed=17.4x    frame= 3274 fps=424 q=-0.0 size=N/A time=00:02:16.55 bitrate=N/A speed=17.7x    frame= 3521 fps=427 q=-0.0 size=N/A time=00:02:26.85 bitrate=N/A speed=17.8x    frame= 3703 fps=423 q=-0.0 size=N/A time=00:02:34.44 bitrate=N/A speed=17.6x    frame= 3875 fps=418 q=-0.0 size=N/A time=00:02:41.61 bitrate=N/A speed=17.4x    frame= 4032 fps=412 q=-0.0 size=N/A time=00:02:48.16 bitrate=N/A speed=17.2x    frame= 4188 fps=406 q=-0.0 size=N/A time=00:02:54.67 bitrate=N/A speed=16.9x    frame= 4328 fps=400 q=-0.0 size=N/A time=00:03:00.51 bitrate=N/A speed=16.7x    frame= 4531 fps=399 q=-0.0 size=N/A time=00:03:08.98 bitrate=N/A speed=16.7x    frame= 4703 fps=397 q=-0.0 size=N/A time=00:03:16.15 bitrate=N/A speed=16.6x    frame= 4864 fps=393 q=-0.0 size=N/A time=00:03:22.86 bitrate=N/A speed=16.4x    frame= 4986 fps=387 q=-0.0 size=N/A time=00:03:27.95 bitrate=N/A speed=16.1x    frame= 5175 fps=386 q=-0.0 size=N/A time=00:03:35.84 bitrate=N/A speed=16.1x    frame= 5345 fps=384 q=-0.0 size=N/A time=00:03:42.93 bitrate=N/A speed=  16x    frame= 5487 fps=380 q=-0.0 size=N/A time=00:03:48.85 bitrate=N/A speed=15.9x    frame= 5644 fps=377 q=-0.0 size=N/A time=00:03:55.40 bitrate=N/A speed=15.7x    frame= 5773 fps=373 q=-0.0 size=N/A time=00:04:00.78 bitrate=N/A speed=15.6x    frame= 5926 fps=371 q=-0.0 size=N/A time=00:04:07.16 bitrate=N/A speed=15.5x    frame= 6082 fps=369 q=-0.0 size=N/A time=00:04:13.67 bitrate=N/A speed=15.4x    frame= 6259 fps=368 q=-0.0 size=N/A time=00:04:21.05 bitrate=N/A speed=15.3x    frame= 6436 fps=367 q=-0.0 size=N/A time=00:04:28.43 bitrate=N/A speed=15.3x    frame= 6634 fps=367 q=-0.0 size=N/A time=00:04:36.69 bitrate=N/A speed=15.3x    frame= 6826 fps=368 q=-0.0 size=N/A time=00:04:44.70 bitrate=N/A speed=15.3x    frame= 7060 fps=370 q=-0.0 size=N/A time=00:04:54.46 bitrate=N/A speed=15.4x    frame= 7301 fps=373 q=-0.0 size=N/A time=00:05:04.51 bitrate=N/A speed=15.5x    frame= 7510 fps=373 q=-0.0 size=N/A time=00:05:13.22 bitrate=N/A speed=15.6x    frame= 7702 fps=373 q=-0.0 size=N/A time=00:05:21.23 bitrate=N/A speed=15.6x    frame= 7924 fps=375 q=-0.0 size=N/A time=00:05:30.49 bitrate=N/A speed=15.6x    frame= 8128 fps=375 q=-0.0 size=N/A time=00:05:39.00 bitrate=N/A speed=15.7x    frame= 8336 fps=376 q=-0.0 size=N/A time=00:05:47.68 bitrate=N/A speed=15.7x    frame= 8582 fps=378 q=-0.0 size=N/A time=00:05:57.94 bitrate=N/A speed=15.8x    frame= 8829 fps=380 q=-0.0 size=N/A time=00:06:08.24 bitrate=N/A speed=15.9x    frame= 9089 fps=383 q=-0.0 size=N/A time=00:06:19.08 bitrate=N/A speed=  16x    frame= 9339 fps=385 q=-0.0 size=N/A time=00:06:29.51 bitrate=N/A speed=16.1x    frame= 9513 fps=384 q=-0.0 size=N/A time=00:06:36.77 bitrate=N/A speed=  16x    frame= 9723 fps=385 q=-0.0 size=N/A time=00:06:45.53 bitrate=N/A speed=16.1x    frame= 9963 fps=386 q=-0.0 size=N/A time=00:06:55.54 bitrate=N/A speed=16.1x    frame=10195 fps=388 q=-0.0 size=N/A time=00:07:05.21 bitrate=N/A speed=16.2x    frame=10423 fps=389 q=-0.0 size=N/A time=00:07:14.72 bitrate=N/A speed=16.2x    frame=10628 fps=389 q=-0.0 size=N/A time=00:07:23.27 bitrate=N/A speed=16.2x    frame=10864 fps=390 q=-0.0 size=N/A time=00:07:33.11 bitrate=N/A speed=16.3x    frame=11102 fps=392 q=-0.0 size=N/A time=00:07:43.08 bitrate=N/A speed=16.3x    frame=11271 fps=390 q=-0.0 size=N/A time=00:07:50.09 bitrate=N/A speed=16.3x    frame=11445 fps=389 q=-0.0 size=N/A time=00:07:57.35 bitrate=N/A speed=16.2x    frame=11675 fps=390 q=-0.0 size=N/A time=00:08:06.94 bitrate=N/A speed=16.3x    frame=11834 fps=389 q=-0.0 size=N/A time=00:08:13.57 bitrate=N/A speed=16.2x    frame=12028 fps=389 q=-0.0 size=N/A time=00:08:21.66 bitrate=N/A speed=16.2x    frame=12231 fps=389 q=-0.0 size=N/A time=00:08:30.13 bitrate=N/A speed=16.2x    frame=12398 fps=388 q=-0.0 size=N/A time=00:08:37.09 bitrate=N/A speed=16.2x    frame=12625 fps=388 q=-0.0 size=N/A time=00:08:46.56 bitrate=N/A speed=16.2x    frame=12798 fps=388 q=-0.0 size=N/A time=00:08:53.78 bitrate=N/A speed=16.2x    frame=12988 fps=387 q=-0.0 size=N/A time=00:09:01.70 bitrate=N/A speed=16.2x    frame=13207 fps=388 q=-0.0 size=N/A time=00:09:10.84 bitrate=N/A speed=16.2x    frame=13443 fps=389 q=-0.0 size=N/A time=00:09:20.68 bitrate=N/A speed=16.2x    frame=13624 fps=388 q=-0.0 size=N/A time=00:09:28.23 bitrate=N/A speed=16.2x    frame=13873 fps=390 q=-0.0 size=N/A time=00:09:38.61 bitrate=N/A speed=16.3x    frame=14057 fps=389 q=-0.0 size=N/A time=00:09:46.29 bitrate=N/A speed=16.2x    frame=14263 fps=389 q=-0.0 size=N/A time=00:09:54.88 bitrate=N/A speed=16.2x    frame=14511 fps=391 q=-0.0 size=N/A time=00:10:05.22 bitrate=N/A speed=16.3x    frame=14745 fps=391 q=-0.0 size=N/A time=00:10:14.98 bitrate=N/A speed=16.3x    frame=14919 fps=391 q=-0.0 size=N/A time=00:10:22.24 bitrate=N/A speed=16.3x    frame=15128 fps=391 q=-0.0 size=N/A time=00:10:30.96 bitrate=N/A speed=16.3x    frame=15353 fps=391 q=-0.0 size=N/A time=00:10:40.34 bitrate=N/A speed=16.3x    frame=15568 fps=392 q=-0.0 size=N/A time=00:10:49.31 bitrate=N/A speed=16.3x    frame=15752 fps=391 q=-0.0 size=N/A time=00:10:56.98 bitrate=N/A speed=16.3x    frame=15955 fps=391 q=-0.0 size=N/A time=00:11:05.45 bitrate=N/A speed=16.3x    frame=16148 fps=391 q=-0.0 size=N/A time=00:11:13.50 bitrate=N/A speed=16.3x    frame=16365 fps=392 q=-0.0 size=N/A time=00:11:22.55 bitrate=N/A speed=16.3x    frame=16553 fps=391 q=-0.0 size=N/A time=00:11:30.39 bitrate=N/A speed=16.3x    frame=16771 fps=392 q=-0.0 size=N/A time=00:11:39.49 bitrate=N/A speed=16.3x    frame=16993 fps=392 q=-0.0 size=N/A time=00:11:48.74 bitrate=N/A speed=16.3x    frame=17254 fps=393 q=-0.0 size=N/A time=00:11:59.63 bitrate=N/A speed=16.4x    frame=17480 fps=394 q=-0.0 size=N/A time=00:12:09.06 bitrate=N/A speed=16.4x    frame=17725 fps=395 q=-0.0 size=N/A time=00:12:19.28 bitrate=N/A speed=16.5x    frame=17934 fps=395 q=-0.0 size=N/A time=00:12:27.99 bitrate=N/A speed=16.5x    frame=18177 fps=396 q=-0.0 size=N/A time=00:12:38.13 bitrate=N/A speed=16.5x    frame=18400 fps=396 q=-0.0 size=N/A time=00:12:47.43 bitrate=N/A speed=16.5x    frame=18613 fps=396 q=-0.0 size=N/A time=00:12:56.31 bitrate=N/A speed=16.5x    frame=18835 fps=397 q=-0.0 size=N/A time=00:13:05.57 bitrate=N/A speed=16.5x    frame=19076 fps=397 q=-0.0 size=N/A time=00:13:15.62 bitrate=N/A speed=16.6x    frame=19274 fps=397 q=-0.0 size=N/A time=00:13:23.88 bitrate=N/A speed=16.6x    frame=19438 fps=396 q=-0.0 size=N/A time=00:13:30.72 bitrate=N/A speed=16.5x    frame=19657 fps=397 q=-0.0 size=N/A time=00:13:39.86 bitrate=N/A speed=16.5x    frame=19900 fps=397 q=-0.0 size=N/A time=00:13:49.99 bitrate=N/A speed=16.6x    frame=20082 fps=397 q=-0.0 size=N/A time=00:13:57.58 bitrate=N/A speed=16.6x    frame=20249 fps=396 q=-0.0 size=N/A time=00:14:04.55 bitrate=N/A speed=16.5x    frame=20383 fps=395 q=-0.0 size=N/A time=00:14:10.14 bitrate=N/A speed=16.5x    frame=20568 fps=395 q=-0.0 size=N/A time=00:14:17.85 bitrate=N/A speed=16.5x    frame=20754 fps=394 q=-0.0 size=N/A time=00:14:25.61 bitrate=N/A speed=16.4x    frame=20927 fps=394 q=-0.0 size=N/A time=00:14:32.83 bitrate=N/A speed=16.4x    frame=21115 fps=393 q=-0.0 size=N/A time=00:14:40.67 bitrate=N/A speed=16.4x    frame=21268 fps=393 q=-0.0 size=N/A time=00:14:47.05 bitrate=N/A speed=16.4x    frame=21456 fps=392 q=-0.0 size=N/A time=00:14:54.89 bitrate=N/A speed=16.4x    frame=21670 fps=392 q=-0.0 size=N/A time=00:15:03.81 bitrate=N/A speed=16.4x    frame=21896 fps=393 q=-0.0 size=N/A time=00:15:13.24 bitrate=N/A speed=16.4x    frame=22088 fps=393 q=-0.0 size=N/A time=00:15:21.25 bitrate=N/A speed=16.4x    frame=22265 fps=392 q=-0.0 size=N/A time=00:15:28.63 bitrate=N/A speed=16.4x    frame=22400 fps=391 q=-0.0 size=N/A time=00:15:34.26 bitrate=N/A speed=16.3x    frame=22575 fps=391 q=-0.0 size=N/A time=00:15:41.56 bitrate=N/A speed=16.3x    frame=22785 fps=391 q=-0.0 size=N/A time=00:15:50.32 bitrate=N/A speed=16.3x    frame=23004 fps=391 q=-0.0 size=N/A time=00:15:59.45 bitrate=N/A speed=16.3x    frame=23180 fps=391 q=-0.0 size=N/A time=00:16:06.79 bitrate=N/A speed=16.3x    frame=23336 fps=390 q=-0.0 size=N/A time=00:16:13.30 bitrate=N/A speed=16.3x    frame=23553 fps=390 q=-0.0 size=N/A time=00:16:22.35 bitrate=N/A speed=16.3x    frame=23703 fps=389 q=-0.0 size=N/A time=00:16:28.61 bitrate=N/A speed=16.2x    frame=23858 fps=389 q=-0.0 size=N/A time=00:16:35.07 bitrate=N/A speed=16.2x    frame=24050 fps=388 q=-0.0 size=N/A time=00:16:43.08 bitrate=N/A speed=16.2x    frame=24261 fps=389 q=-0.0 size=N/A time=00:16:51.88 bitrate=N/A speed=16.2x    frame=24532 fps=390 q=-0.0 size=N/A time=00:17:03.18 bitrate=N/A speed=16.3x    frame=24779 fps=390 q=-0.0 size=N/A time=00:17:13.49 bitrate=N/A speed=16.3x    frame=25043 fps=391 q=-0.0 size=N/A time=00:17:24.50 bitrate=N/A speed=16.3x    frame=25288 fps=392 q=-0.0 size=N/A time=00:17:34.72 bitrate=N/A speed=16.4x    frame=25543 fps=393 q=-0.0 size=N/A time=00:17:45.35 bitrate=N/A speed=16.4x    frame=25801 fps=394 q=-0.0 size=N/A time=00:17:56.11 bitrate=N/A speed=16.4x    frame=26053 fps=395 q=-0.0 size=N/A time=00:18:06.62 bitrate=N/A speed=16.5x    frame=26219 fps=394 q=-0.0 size=N/A time=00:18:13.55 bitrate=N/A speed=16.4x    frame=26443 fps=394 q=-0.0 size=N/A time=00:18:22.89 bitrate=N/A speed=16.4x    frame=26644 fps=394 q=-0.0 size=N/A time=00:18:31.27 bitrate=N/A speed=16.4x    frame=26819 fps=394 q=-0.0 size=N/A time=00:18:38.57 bitrate=N/A speed=16.4x    frame=27039 fps=394 q=-0.0 size=N/A time=00:18:47.75 bitrate=N/A speed=16.4x    frame=27250 fps=394 q=-0.0 size=N/A time=00:18:56.55 bitrate=N/A speed=16.4x    frame=27476 fps=394 q=-0.0 size=N/A time=00:19:05.97 bitrate=N/A speed=16.5x    frame=27690 fps=395 q=-0.0 size=N/A time=00:19:14.90 bitrate=N/A speed=16.5x    frame=27864 fps=394 q=-0.0 size=N/A time=00:19:22.16 bitrate=N/A speed=16.4x    frame=28067 fps=394 q=-0.0 size=N/A time=00:19:30.62 bitrate=N/A speed=16.4x    frame=28286 fps=394 q=-0.0 size=N/A time=00:19:39.76 bitrate=N/A speed=16.5x    frame=28506 fps=395 q=-0.0 size=N/A time=00:19:48.93 bitrate=N/A speed=16.5x    frame=28708 fps=395 q=-0.0 size=N/A time=00:19:57.36 bitrate=N/A speed=16.5x    frame=28934 fps=395 q=-0.0 size=N/A time=00:20:06.78 bitrate=N/A speed=16.5x    frame=29139 fps=395 q=-0.0 size=N/A time=00:20:15.33 bitrate=N/A speed=16.5x    frame=29339 fps=395 q=-0.0 size=N/A time=00:20:23.68 bitrate=N/A speed=16.5x    frame=29589 fps=396 q=-0.0 size=N/A time=00:20:34.10 bitrate=N/A speed=16.5x    frame=29786 fps=395 q=-0.0 size=N/A time=00:20:42.32 bitrate=N/A speed=16.5x    frame=29955 fps=395 q=-0.0 size=N/A time=00:20:49.37 bitrate=N/A speed=16.5x    frame=30137 fps=395 q=-0.0 size=N/A time=00:20:56.96 bitrate=N/A speed=16.5x    frame=30334 fps=395 q=-0.0 size=N/A time=00:21:05.18 bitrate=N/A speed=16.5x    frame=30578 fps=395 q=-0.0 size=N/A time=00:21:15.35 bitrate=N/A speed=16.5x    frame=30782 fps=395 q=-0.0 size=N/A time=00:21:23.86 bitrate=N/A speed=16.5x    frame=30978 fps=395 q=-0.0 size=N/A time=00:21:32.04 bitrate=N/A speed=16.5x    frame=31156 fps=395 q=-0.0 size=N/A time=00:21:39.46 bitrate=N/A speed=16.5x    frame=31325 fps=394 q=-0.0 size=N/A time=00:21:46.51 bitrate=N/A speed=16.4x    frame=31506 fps=394 q=-0.0 size=N/A time=00:21:54.06 bitrate=N/A speed=16.4x    frame=31711 fps=394 q=-0.0 size=N/A time=00:22:02.61 bitrate=N/A speed=16.4x    frame=31883 fps=394 q=-0.0 size=N/A time=00:22:09.78 bitrate=N/A speed=16.4x    frame=32108 fps=394 q=-0.0 size=N/A time=00:22:19.17 bitrate=N/A speed=16.4x    frame=32339 fps=394 q=-0.0 size=N/A time=00:22:28.80 bitrate=N/A speed=16.4x    frame=32530 fps=394 q=-0.0 size=N/A time=00:22:36.77 bitrate=N/A speed=16.4x    frame=32762 fps=394 q=-0.0 size=N/A time=00:22:46.44 bitrate=N/A speed=16.4x    frame=32960 fps=394 q=-0.0 size=N/A time=00:22:54.70 bitrate=N/A speed=16.4x    frame=33184 fps=395 q=-0.0 size=N/A time=00:23:04.04 bitrate=N/A speed=16.5x    frame=33395 fps=395 q=-0.0 size=N/A time=00:23:12.84 bitrate=N/A speed=16.5x    frame=33606 fps=395 q=-0.0 size=N/A time=00:23:21.65 bitrate=N/A speed=16.5x    frame=33833 fps=395 q=-0.0 size=N/A time=00:23:31.11 bitrate=N/A speed=16.5x    frame=34030 fps=395 q=-0.0 size=N/A time=00:23:39.33 bitrate=N/A speed=16.5x    frame=34253 fps=395 q=-0.0 size=N/A time=00:23:48.63 bitrate=N/A speed=16.5x    frame=34486 fps=395 q=-0.0 size=N/A time=00:23:58.35 bitrate=N/A speed=16.5x    [Parsed_ssim_10 @ 0000016ee514f2c0] SSIM Y:0.992732 (21.385956) U:0.993351 (21.772474) V:0.993434 (21.827019) All:0.992952 (21.519526)
[out#0/null @ 0000016ee3c90700] video:14858KiB audio:270440KiB subtitle:0KiB other streams:0KiB global headers:0KiB muxing overhead: unknown
frame=34579 fps=395 q=-0.0 Lsize=N/A time=00:24:02.23 bitrate=N/A speed=16.5x    
